<svg id="Component_57_1" data-name="Component 57 – 1" xmlns="http://www.w3.org/2000/svg" width="32" height="32" viewBox="0 0 32 32">
  <rect id="Rectangle_72" data-name="Rectangle 72" width="32" height="32" fill="none" opacity="0"/>
  <g id="Group_151" data-name="Group 151" transform="translate(5.63 5.86)">
    <path id="Path_115" data-name="Path 115" d="M14.272,0h.144a4.342,4.342,0,0,1-1.093,3.272,3.39,3.39,0,0,1-2.984,1.4A4.212,4.212,0,0,1,11.452,1.5,4.808,4.808,0,0,1,14.272,0Zm4.364,14.885v.04a11.8,11.8,0,0,1-1.688,3.255c-.644.886-1.433,2.078-2.841,2.078-1.217,0-2.026-.783-3.273-.8-1.32-.021-2.045.654-3.252.825H7.17a3.674,3.674,0,0,1-2.122-1.462A12.81,12.81,0,0,1,2.1,11.447v-.907A5.943,5.943,0,0,1,4.7,5.662,4.382,4.382,0,0,1,7.641,4.98a7.4,7.4,0,0,1,1.442.413,3.981,3.981,0,0,0,1.441.432,3.458,3.458,0,0,0,1.011-.309,6.219,6.219,0,0,1,3.252-.577A4.512,4.512,0,0,1,18.1,6.916a4.254,4.254,0,0,0-2.161,4.221A4.357,4.357,0,0,0,18.636,14.885Z"/>
  </g>
</svg>
