<svg id="Component_56_1" data-name="Component 56 – 1" xmlns="http://www.w3.org/2000/svg" width="32" height="32" viewBox="0 0 32 32">
  <rect id="Rectangle_72" data-name="Rectangle 72" width="32" height="32" opacity="0"/>
  <g id="Group_150" data-name="Group 150" transform="translate(5.893 5.893)">
    <path id="Path_111" data-name="Path 111" d="M4.48,145.025l-.7,2.627-2.572.054a10.124,10.124,0,0,1-.074-9.438h0l2.289.42,1,2.276a6.032,6.032,0,0,0,.057,4.061Z" transform="translate(0 -132.809)" fill="#fbbb00"/>
    <path id="Path_112" data-name="Path 112" d="M271.336,208.176a10.1,10.1,0,0,1-3.6,9.77h0l-2.884-.147-.408-2.548a6.024,6.024,0,0,0,2.592-3.076h-5.4v-4Z" transform="translate(-251.299 -199.957)" fill="#518ef8"/>
    <path id="Path_113" data-name="Path 113" d="M45.738,315.181h0a10.11,10.11,0,0,1-15.229-3.092l3.275-2.681a6.011,6.011,0,0,0,8.662,3.078Z" transform="translate(-29.305 -297.194)" fill="#28b446"/>
    <path id="Path_114" data-name="Path 114" d="M44.052,2.327l-3.274,2.68a6.01,6.01,0,0,0-8.861,3.147l-3.292-2.7h0A10.109,10.109,0,0,1,44.052,2.327Z" transform="translate(-27.494)" fill="#f14336"/>
  </g>
</svg>
