<svg id="Component_55_1" data-name="Component 55 – 1" xmlns="http://www.w3.org/2000/svg" width="32" height="32" viewBox="0 0 32 32">
  <rect id="Rectangle_72" data-name="Rectangle 72" width="32" height="32" fill="#fff" opacity="0"/>
  <g id="Group_149" data-name="Group 149" transform="translate(-17.794 -4.1)">
    <path id="Path_110" data-name="Path 110" d="M31.4,21.39H28.926c-.4,0-.526-.15-.526-.526V17.835c0-.4.15-.526.526-.526H31.4v-2.2a5.56,5.56,0,0,1,.676-2.829,4.153,4.153,0,0,1,2.228-1.852,5.569,5.569,0,0,1,1.927-.325h2.453c.35,0,.5.15.5.5v2.854c0,.35-.15.5-.5.5-.676,0-1.352,0-2.028.025a.9.9,0,0,0-1.026,1.026c-.025.751,0,1.477,0,2.253h2.9c.4,0,.551.15.551.551v3.029c0,.4-.125.526-.551.526h-2.9v8.16c0,.426-.125.576-.576.576H31.93c-.375,0-.526-.15-.526-.526Z" transform="translate(0)" fill="#fff"/>
  </g>
</svg>
